<svg width="21" height="25" viewBox="0 0 21 25" fill="none" xmlns="http://www.w3.org/2000/svg">
<path d="M8.16667 22.1667H12.8333C12.8333 23.45 11.7833 24.5 10.5 24.5C9.21667 24.5 8.16667 23.45 8.16667 22.1667ZM21 19.8333V21H0V19.8333L2.33333 17.5V10.5C2.33333 6.88333 4.66667 3.73333 8.16667 2.68333V2.33333C8.16667 1.05 9.21667 0 10.5 0C11.7833 0 12.8333 1.05 12.8333 2.33333V2.68333C16.3333 3.73333 18.6667 6.88333 18.6667 10.5V17.5L21 19.8333ZM16.3333 10.5C16.3333 7.23333 13.7667 4.66667 10.5 4.66667C7.23333 4.66667 4.66667 7.23333 4.66667 10.5V18.6667H16.3333V10.5Z" fill="#CED4DA"/>
</svg>
