<svg width="18" height="18" viewBox="0 0 18 18" fill="none" xmlns="http://www.w3.org/2000/svg">
<path fill-rule="evenodd" clip-rule="evenodd" d="M18 9C18 11.3869 17.0518 13.6761 15.364 15.364C13.6761 17.0518 11.3869 18 9 18C6.61305 18 4.32387 17.0518 2.63604 15.364C0.948211 13.6761 0 11.3869 0 9C0 6.61305 0.948211 4.32387 2.63604 2.63604C4.32387 0.948211 6.61305 0 9 0C11.3869 0 13.6761 0.948211 15.364 2.63604C17.0518 4.32387 18 6.61305 18 9ZM7.5 4.5C7.5 4.10218 7.65804 3.72064 7.93934 3.43934C8.22064 3.15804 8.60218 3 9 3C9.39782 3 9.77936 3.15804 10.0607 3.43934C10.342 3.72064 10.5 4.10218 10.5 4.5V9C10.5 9.39782 10.342 9.77936 10.0607 10.0607C9.77936 10.342 9.39782 10.5 9 10.5C8.60218 10.5 8.22064 10.342 7.93934 10.0607C7.65804 9.77936 7.5 9.39782 7.5 9V4.5ZM9 12C8.60218 12 8.22064 12.158 7.93934 12.4393C7.65804 12.7206 7.5 13.1022 7.5 13.5C7.5 13.8978 7.65804 14.2794 7.93934 14.5607C8.22064 14.842 8.60218 15 9 15C9.39782 15 9.77936 14.842 10.0607 14.5607C10.342 14.2794 10.5 13.8978 10.5 13.5C10.5 13.1022 10.342 12.7206 10.0607 12.4393C9.77936 12.158 9.39782 12 9 12Z" fill="#CED4DA"/>
</svg>
