<svg width="19" height="18" viewBox="0 0 19 18" fill="none" xmlns="http://www.w3.org/2000/svg">
<path d="M16.4841 0C17.0146 0 17.5233 0.210714 17.8983 0.585786C18.2734 0.960859 18.4841 1.46957 18.4841 2V16C18.4841 16.5304 18.2734 17.0391 17.8983 17.4142C17.5233 17.7893 17.0146 18 16.4841 18H2.48413C1.9537 18 1.44499 17.7893 1.06992 17.4142C0.694844 17.0391 0.484131 16.5304 0.484131 16V2C0.484131 1.46957 0.694844 0.960859 1.06992 0.585786C1.44499 0.210714 1.9537 0 2.48413 0H16.4841ZM15.9841 15.5V10.2C15.9841 9.33539 15.6407 8.5062 15.0293 7.89483C14.4179 7.28346 13.5887 6.94 12.7241 6.94C11.8741 6.94 10.8841 7.46 10.4041 8.24V7.13H7.61413V15.5H10.4041V10.57C10.4041 9.8 11.0241 9.17 11.7941 9.17C12.1654 9.17 12.5215 9.3175 12.7841 9.58005C13.0466 9.8426 13.1941 10.1987 13.1941 10.57V15.5H15.9841ZM4.36413 5.56C4.80969 5.56 5.23701 5.383 5.55207 5.06794C5.86713 4.75288 6.04413 4.32556 6.04413 3.88C6.04413 2.95 5.29413 2.19 4.36413 2.19C3.91592 2.19 3.48606 2.36805 3.16912 2.68499C2.85218 3.00193 2.67413 3.43178 2.67413 3.88C2.67413 4.81 3.43413 5.56 4.36413 5.56ZM5.75413 15.5V7.13H2.98413V15.5H5.75413Z" fill="#CED4DA"/>
</svg>
