<svg width="24" height="19" viewBox="0 0 24 19" fill="none" xmlns="http://www.w3.org/2000/svg">
<path d="M21 4.66667L11.6667 10.5L2.33333 4.66667V2.33333L11.6667 8.16667L21 2.33333M21 0H2.33333C1.03833 0 0 1.03833 0 2.33333V16.3333C0 16.9522 0.245833 17.5457 0.683417 17.9832C1.121 18.4208 1.71449 18.6667 2.33333 18.6667H21C21.6188 18.6667 22.2123 18.4208 22.6499 17.9832C23.0875 17.5457 23.3333 16.9522 23.3333 16.3333V2.33333C23.3333 1.71449 23.0875 1.121 22.6499 0.683417C22.2123 0.245833 21.6188 0 21 0Z" fill="#CED4DA"/>
</svg>
