<svg width="24" height="24" viewBox="0 0 24 24" fill="none" xmlns="http://www.w3.org/2000/svg">
<g clip-path="url(#clip0_1_4141)">
<path d="M22.1066 12.4201L13.0533 3.36677C12.9328 3.24841 12.79 3.15508 12.6333 3.09215C12.4765 3.02922 12.3089 2.99794 12.14 3.00011H10.7466L21.1666 13.3001L14.1466 20.3801C14.2661 20.4996 14.408 20.5945 14.5641 20.6592C14.7203 20.7239 14.8876 20.7572 15.0566 20.7572C15.2257 20.7572 15.393 20.7239 15.5492 20.6592C15.7053 20.5945 15.8472 20.4996 15.9666 20.3801L22.1066 14.2401C22.2262 14.1206 22.321 13.9788 22.3857 13.8226C22.4504 13.6665 22.4837 13.4991 22.4837 13.3301C22.4837 13.1611 22.4504 12.9937 22.3857 12.8376C22.321 12.6815 22.2262 12.5396 22.1066 12.4201Z" fill="#CED4DA"/>
<path d="M18.52 12.4468L9.46666 3.38679C9.3478 3.26482 9.2058 3.16779 9.04897 3.1014C8.89214 3.035 8.72363 3.00057 8.55333 3.00012H2.40666C2.06542 3.00012 1.73815 3.13568 1.49685 3.37698C1.25555 3.61827 1.12 3.94554 1.12 4.28679V10.4335C1.12046 10.6022 1.15427 10.7691 1.21948 10.9247C1.2847 11.0803 1.38003 11.2215 1.5 11.3401L10.56 20.4001C10.6795 20.5197 10.8213 20.6145 10.9775 20.6792C11.1336 20.7439 11.301 20.7772 11.47 20.7772C11.639 20.7772 11.8064 20.7439 11.9625 20.6792C12.1186 20.6145 12.2605 20.5197 12.38 20.4001L18.52 14.2601C18.7594 14.0191 18.8937 13.6932 18.8937 13.3535C18.8937 13.0137 18.7594 12.6878 18.52 12.4468ZM4.44666 7.48012C4.21827 7.48012 3.99502 7.4123 3.80522 7.28528C3.61541 7.15825 3.46759 6.97773 3.3805 6.7666C3.2934 6.55546 3.27096 6.32323 3.316 6.09932C3.36105 5.87542 3.47155 5.66993 3.63352 5.5089C3.79548 5.34787 4.00161 5.23856 4.22577 5.19481C4.44993 5.15106 4.68204 5.17486 4.89266 5.26317C5.10329 5.35149 5.28295 5.50035 5.40887 5.69089C5.5348 5.88143 5.60132 6.10507 5.59999 6.33346C5.59823 6.63818 5.47594 6.92983 5.25984 7.14468C5.04374 7.35953 4.75139 7.48013 4.44666 7.48012Z" fill="#CED4DA"/>
</g>
<defs>
<clipPath id="clip0_1_4141">
<rect width="24" height="24" fill="white"/>
</clipPath>
</defs>
</svg>
