<svg width="21" height="17" viewBox="0 0 21 17" fill="none" xmlns="http://www.w3.org/2000/svg">
<path d="M20.9442 2C20.1742 2.35 19.3442 2.58 18.4842 2.69C19.3642 2.16 20.0442 1.32 20.3642 0.31C19.5342 0.81 18.6142 1.16 17.6442 1.36C16.8542 0.5 15.7442 0 14.4842 0C12.1342 0 10.2142 1.92 10.2142 4.29C10.2142 4.63 10.2542 4.96 10.3242 5.27C6.76417 5.09 3.59417 3.38 1.48417 0.79C1.11417 1.42 0.90417 2.16 0.90417 2.94C0.90417 4.43 1.65417 5.75 2.81417 6.5C2.10417 6.5 1.44417 6.3 0.86417 6V6.03C0.86417 8.11 2.34417 9.85 4.30417 10.24C3.6749 10.4122 3.01427 10.4362 2.37417 10.31C2.64578 11.1625 3.17771 11.9084 3.89519 12.4429C4.61267 12.9775 5.47962 13.2737 6.37417 13.29C4.8578 14.4904 2.97817 15.1393 1.04417 15.13C0.70417 15.13 0.36417 15.11 0.0241699 15.07C1.92417 16.29 4.18417 17 6.60417 17C14.4842 17 18.8142 10.46 18.8142 4.79C18.8142 4.6 18.8142 4.42 18.8042 4.23C19.6442 3.63 20.3642 2.87 20.9442 2Z" fill="#CED4DA"/>
</svg>
