<svg width="21" height="14" viewBox="0 0 21 14" fill="none" xmlns="http://www.w3.org/2000/svg">
<path d="M8.48413 10L13.6741 7L8.48413 4V10ZM20.0441 2.17C20.1741 2.64 20.2641 3.27 20.3241 4.07C20.3941 4.87 20.4241 5.56 20.4241 6.16L20.4841 7C20.4841 9.19 20.3241 10.8 20.0441 11.83C19.7941 12.73 19.2141 13.31 18.3141 13.56C17.8441 13.69 16.9841 13.78 15.6641 13.84C14.3641 13.91 13.1741 13.94 12.0741 13.94L10.4841 14C6.29413 14 3.68413 13.84 2.65413 13.56C1.75413 13.31 1.17413 12.73 0.924131 11.83C0.794131 11.36 0.704131 10.73 0.644131 9.93C0.574131 9.13 0.544131 8.44 0.544131 7.84L0.484131 7C0.484131 4.81 0.644131 3.2 0.924131 2.17C1.17413 1.27 1.75413 0.69 2.65413 0.44C3.12413 0.31 3.98413 0.22 5.30413 0.16C6.60413 0.0899998 7.79413 0.0599999 8.89413 0.0599999L10.4841 0C14.6741 0 17.2841 0.16 18.3141 0.44C19.2141 0.69 19.7941 1.27 20.0441 2.17Z" fill="#CED4DA"/>
</svg>
